<?xml version="1.0" standalone="no"?>
<!DOCTYPE svg PUBLIC "-//W3C//DTD SVG 20010904//EN"
 "http://www.w3.org/TR/2001/REC-SVG-20010904/DTD/svg10.dtd">
<svg version="1.0" xmlns="http://www.w3.org/2000/svg"
 width="512.000000pt" height="512.000000pt" viewBox="0 0 512.000000 512.000000"
 preserveAspectRatio="xMidYMid meet">
<metadata>
Created by potrace 1.11, written by Peter Selinger 2001-2013
</metadata>
<g transform="translate(0.000000,512.000000) scale(0.100000,-0.100000)"
fill="#000000" stroke="none">
<path d="M3563 4890 c-93 -33 -164 -69 -232 -117 -201 -143 -422 -451 -530
-738 -25 -66 -33 -86 -49 -126 -43 -108 -174 -642 -217 -884 -27 -151 -36
-243 -40 -398 -3 -174 26 -297 96 -397 55 -79 62 -82 150 -63 41 8 81 16 89
17 8 0 17 3 20 6 3 3 37 16 75 29 139 47 339 158 444 245 333 279 565 526 695
744 88 145 182 385 215 543 6 29 14 65 17 79 3 14 7 97 9 185 3 182 -13 290
-66 426 -55 144 -190 318 -304 394 -111 73 -261 96 -372 55z"/>
<path d="M533 3790 c-18 -11 -34 -28 -34 -37 -6 -84 -1 -102 42 -148 40 -43
189 -139 265 -171 126 -52 282 -237 392 -464 56 -115 116 -270 107 -278 -3 -3
-22 8 -43 24 -96 77 -414 254 -454 254 -8 0 -18 4 -24 9 -5 5 -58 25 -119 44
-102 34 -154 48 -230 61 -16 3 -39 8 -50 10 -104 21 -304 27 -344 10 -55 -23
-54 -101 2 -131 28 -15 69 -17 317 -19 157 -1 300 -4 318 -7 126 -21 349 -132
474 -236 11 -9 28 -23 38 -31 9 -8 36 -31 60 -50 23 -19 65 -56 94 -82 28 -26
53 -42 54 -37 7 18 -39 221 -69 308 -68 196 -200 421 -329 558 -68 72 -153
178 -245 304 -38 53 -82 104 -97 113 -35 22 -86 20 -125 -4z"/>
<path d="M1625 2452 c-11 -2 -48 -16 -82 -32 -49 -23 -91 -58 -201 -167 -77
-76 -152 -157 -167 -180 -15 -24 -31 -41 -35 -38 -4 3 -7 -1 -7 -8 1 -6 -18
-51 -41 -98 -55 -114 -55 -121 6 -116 113 10 193 -47 195 -140 1 -71 -31 -130
-66 -124 -5 1 -6 -3 -2 -9 8 -13 -37 -30 -81 -30 -55 0 -110 36 -141 94 -19
35 -21 32 -59 -80 -70 -208 -79 -255 -78 -394 1 -100 3 -109 39 -180 41 -83
69 -112 134 -142 59 -27 91 -32 191 -32 109 0 176 9 252 35 342 115 623 442
722 840 29 116 36 190 24 264 -8 53 -48 186 -59 195 -3 3 -19 29 -35 59 -34
64 -140 176 -204 216 -86 54 -218 83 -305 67z"/>
<path d="M3219 1966 c0 -1 -2 -102 -3 -226 -2 -124 -6 -236 -9 -250 -3 -14 -8
-43 -12 -65 -13 -88 -71 -285 -110 -370 -69 -154 -92 -195 -226 -401 -55 -84
-99 -154 -99 -158 0 -10 55 -57 95 -80 148 -88 369 -56 474 68 65 77 105 131
130 176 66 122 136 287 147 350 3 14 11 48 18 75 8 28 18 70 22 95 4 25 8 47
9 50 2 8 16 101 21 140 3 19 7 46 10 60 5 33 6 250 1 275 -3 11 -8 40 -12 65
-3 25 -13 70 -22 101 l-15 55 -86 12 c-145 20 -164 22 -249 26 -46 1 -83 2
-84 2z"/>
<path d="M2818 1946 c-1 -2 -28 -6 -58 -10 -79 -8 -105 -14 -201 -43 l-86 -25
2 -97 c3 -91 -18 -218 -44 -276 -5 -11 -20 -51 -32 -89 -23 -74 -64 -149 -135
-251 -104 -149 -110 -231 -24 -331 33 -39 81 -58 145 -56 117 2 230 104 330
298 47 92 107 264 120 344 4 25 9 54 11 65 17 85 23 332 10 415 -2 19 -5 38
-5 41 -1 8 -27 19 -33 15z"/>
<path d="M4034 1512 c1 -169 -5 -271 -19 -342 -44 -222 -75 -321 -150 -475
-56 -116 -129 -215 -202 -277 -50 -42 -46 -44 59 -24 95 18 216 65 304 118 73
43 208 147 259 198 l30 30 135 -5 c74 -3 146 -7 160 -10 14 -2 61 -9 105 -15
44 -6 91 -13 105 -16 14 -2 43 -7 65 -10 22 -4 75 -12 118 -18 43 -7 80 -10
82 -6 3 4 -65 35 -150 69 -146 58 -271 111 -305 130 -133 73 -206 121 -225
148 -7 10 -23 68 -35 128 -12 61 -28 125 -36 143 -7 17 -11 32 -9 32 2 0 -5
21 -17 48 -43 98 -142 228 -239 310 l-35 31 0 -187z"/>
</g>
</svg>
